<?xml version="1.0" encoding="UTF-8" standalone="no"?>
<!-- Created with Inkscape (http://www.inkscape.org/) -->

<svg
   xmlns:dc="http://purl.org/dc/elements/1.1/"
   xmlns:cc="http://creativecommons.org/ns#"
   xmlns:rdf="http://www.w3.org/1999/02/22-rdf-syntax-ns#"
   xmlns:svg="http://www.w3.org/2000/svg"
   xmlns="http://www.w3.org/2000/svg"
   xmlns:xlink="http://www.w3.org/1999/xlink"
   xmlns:sodipodi="http://sodipodi.sourceforge.net/DTD/sodipodi-0.dtd"
   xmlns:inkscape="http://www.inkscape.org/namespaces/inkscape"
   width="12.057261mm"
   height="14.661507mm"
   viewBox="0 0 12.057261 14.661507"
   version="1.1"
   id="svg8"
   inkscape:version="0.92.3 (2405546, 2018-03-11)"
   sodipodi:docname="favicon.svg">
  <defs
     id="defs2">
    <rect
       height="612"
       width="792"
       id="SVGID_1_"
       x="0"
       y="0" />
    <path
       d="m 325.974,207.788 c 1.455,7.32 23.099,28.228 29.102,29.101 4.72,0.687 12.623,-0.408 20.659,-8.443 v -0.001 c 8.035,-8.035 9.129,-15.938 8.443,-20.658 -0.873,-6.002 -21.781,-27.647 -29.102,-29.103 z"
       id="SVGID_3_"
       inkscape:connector-curvature="0" />
    <path
       d="m 371.222,253.175 c 1.456,7.321 23.1,28.229 29.102,29.103 4.721,0.686 12.623,-0.409 20.659,-8.444 v -10e-4 c 8.034,-8.035 9.131,-15.937 8.443,-20.659 -0.874,-6.002 -21.782,-27.645 -29.103,-29.101 z"
       id="SVGID_6_"
       inkscape:connector-curvature="0" />
    <rect
       height="612"
       width="792"
       id="SVGID_9_"
       x="0"
       y="0" />
    <rect
       height="257"
       width="792"
       id="SVGID_1_-1"
       x="0"
       y="0" />
    <path
       d="m 627.247,71.78 c 1.519,7.642 24.112,29.466 30.378,30.377 4.926,0.717 13.177,-0.426 21.563,-8.812 l 0.003,-0.001 c 8.387,-8.388 9.529,-16.637 8.812,-21.565 -0.911,-6.266 -22.736,-28.857 -30.377,-30.377 z"
       id="SVGID_3_-2"
       inkscape:connector-curvature="0" />
    <path
       d="m 674.479,119.157 c 1.521,7.643 24.112,29.466 30.378,30.378 4.928,0.717 13.177,-0.425 21.564,-8.813 8.388,-8.388 9.53,-16.637 8.813,-21.564 -0.911,-6.265 -22.736,-28.857 -30.377,-30.377 z"
       id="SVGID_6_-6"
       inkscape:connector-curvature="0" />
    <rect
       height="257"
       width="792"
       id="SVGID_9_-9"
       x="0"
       y="0" />
    <rect
       height="500"
       width="1500"
       id="SVGID_1_-9"
       x="0"
       y="0" />
    <linearGradient
       gradientTransform="matrix(-15.256,29.0818,29.0818,15.256,-17392.613,-9089.2715)"
       y2="611.95898"
       x2="1"
       y1="611.95898"
       x1="0"
       gradientUnits="userSpaceOnUse"
       id="SVGID_8_-5">
      <stop
         id="stop3780-3"
         style="stop-color:#E6E7E7"
         offset="0" />
      <stop
         id="stop3782-8"
         style="stop-color:#E6E6E5"
         offset="0.3446" />
      <stop
         id="stop3784-5"
         style="stop-color:#E7E3DF"
         offset="0.4867" />
      <stop
         id="stop3786-9"
         style="stop-color:#E8DDD3"
         offset="0.5915" />
      <stop
         id="stop3788-4"
         style="stop-color:#EAD5C3"
         offset="0.678" />
      <stop
         id="stop3790-8"
         style="stop-color:#ECCBAF"
         offset="0.7532" />
      <stop
         id="stop3792-5"
         style="stop-color:#EEBF97"
         offset="0.8205" />
      <stop
         id="stop3794-2"
         style="stop-color:#F0B07C"
         offset="0.882" />
      <stop
         id="stop3796-2"
         style="stop-color:#F29F5E"
         offset="0.9389" />
      <stop
         id="stop3798-8"
         style="stop-color:#F58D3A"
         offset="0.9901" />
      <stop
         id="stop3800-7"
         style="stop-color:#F68933"
         offset="1" />
    </linearGradient>
    <clipPath
       id="SVGID_7_-5">
      <use
         id="use3777-3"
         overflow="visible"
         xlink:href="#SVGID_6_"
         style="overflow:visible"
         x="0"
         y="0"
         width="100%"
         height="100%" />
    </clipPath>
    <linearGradient
       gradientTransform="matrix(-21.7755,41.5095,41.5095,21.7755,-25036.584,-13137.92)"
       y2="611.9707"
       x2="1"
       y1="611.9707"
       x1="0"
       gradientUnits="userSpaceOnUse"
       id="SVGID_5_-2">
      <stop
         id="stop3747-7"
         style="stop-color:#E6E7E7"
         offset="0" />
      <stop
         id="stop3749-8"
         style="stop-color:#E6E6E5"
         offset="0.3446" />
      <stop
         id="stop3751-7"
         style="stop-color:#E7E3DF"
         offset="0.4867" />
      <stop
         id="stop3753-5"
         style="stop-color:#E8DDD3"
         offset="0.5915" />
      <stop
         id="stop3755-1"
         style="stop-color:#EAD5C3"
         offset="0.678" />
      <stop
         id="stop3757-9"
         style="stop-color:#ECCBAF"
         offset="0.7532" />
      <stop
         id="stop3759-7"
         style="stop-color:#EEBF97"
         offset="0.8205" />
      <stop
         id="stop3761-4"
         style="stop-color:#F0B07C"
         offset="0.882" />
      <stop
         id="stop3763-2"
         style="stop-color:#F29F5E"
         offset="0.9389" />
      <stop
         id="stop3765-1"
         style="stop-color:#F58D3A"
         offset="0.9901" />
      <stop
         id="stop3767-1"
         style="stop-color:#F68933"
         offset="1" />
    </linearGradient>
    <clipPath
       id="SVGID_4_-0">
      <use
         id="use3744-5"
         overflow="visible"
         xlink:href="#SVGID_3_"
         style="overflow:visible"
         x="0"
         y="0"
         width="100%"
         height="100%" />
    </clipPath>
    <clipPath
       id="SVGID_2_-00">
      <use
         id="use3716-3"
         overflow="visible"
         xlink:href="#SVGID_1_"
         style="overflow:visible"
         x="0"
         y="0"
         width="100%"
         height="100%" />
    </clipPath>
    <clipPath
       id="clipPath4930">
      <use
         id="use4928"
         overflow="visible"
         xlink:href="#SVGID_1_"
         style="overflow:visible"
         x="0"
         y="0"
         width="100%"
         height="100%" />
    </clipPath>
    <clipPath
       id="clipPath4934">
      <use
         id="use4932"
         overflow="visible"
         xlink:href="#SVGID_1_"
         style="overflow:visible"
         x="0"
         y="0"
         width="100%"
         height="100%" />
    </clipPath>
    <clipPath
       id="clipPath4938">
      <use
         id="use4936"
         overflow="visible"
         xlink:href="#SVGID_1_"
         style="overflow:visible"
         x="0"
         y="0"
         width="100%"
         height="100%" />
    </clipPath>
    <clipPath
       id="clipPath4942">
      <use
         id="use4940"
         overflow="visible"
         xlink:href="#SVGID_1_"
         style="overflow:visible"
         x="0"
         y="0"
         width="100%"
         height="100%" />
    </clipPath>
    <clipPath
       id="clipPath4946">
      <use
         id="use4944"
         overflow="visible"
         xlink:href="#SVGID_1_"
         style="overflow:visible"
         x="0"
         y="0"
         width="100%"
         height="100%" />
    </clipPath>
    <clipPath
       id="clipPath4950">
      <use
         id="use4948"
         overflow="visible"
         xlink:href="#SVGID_1_"
         style="overflow:visible"
         x="0"
         y="0"
         width="100%"
         height="100%" />
    </clipPath>
    <clipPath
       id="clipPath4954">
      <use
         id="use4952"
         overflow="visible"
         xlink:href="#SVGID_1_"
         style="overflow:visible"
         x="0"
         y="0"
         width="100%"
         height="100%" />
    </clipPath>
    <clipPath
       id="clipPath4958">
      <use
         id="use4956"
         overflow="visible"
         xlink:href="#SVGID_1_"
         style="overflow:visible"
         x="0"
         y="0"
         width="100%"
         height="100%" />
    </clipPath>
    <clipPath
       id="clipPath4962">
      <use
         id="use4960"
         overflow="visible"
         xlink:href="#SVGID_1_"
         style="overflow:visible"
         x="0"
         y="0"
         width="100%"
         height="100%" />
    </clipPath>
    <rect
       height="612"
       width="792"
       id="rect3874-6"
       x="0"
       y="0" />
    <path
       d="m 325.974,207.788 c 1.455,7.32 23.099,28.228 29.102,29.101 4.72,0.687 12.623,-0.408 20.659,-8.443 v -0.001 c 8.035,-8.035 9.129,-15.938 8.443,-20.658 -0.873,-6.002 -21.781,-27.647 -29.102,-29.103 z"
       id="path3890-5"
       inkscape:connector-curvature="0" />
    <path
       d="m 371.222,253.175 c 1.456,7.321 23.1,28.229 29.102,29.103 4.721,0.686 12.623,-0.409 20.659,-8.444 v -10e-4 c 8.034,-8.035 9.131,-15.937 8.443,-20.659 -0.874,-6.002 -21.782,-27.645 -29.103,-29.101 z"
       id="path3909-4"
       inkscape:connector-curvature="0" />
    <rect
       height="612"
       width="792"
       id="SVGID_1_-4"
       x="0"
       y="0" />
    <path
       d="m 325.974,207.788 c 1.455,7.32 23.099,28.228 29.102,29.101 4.72,0.687 12.623,-0.408 20.659,-8.443 v -0.001 c 8.035,-8.035 9.129,-15.938 8.443,-20.658 -0.873,-6.002 -21.781,-27.647 -29.102,-29.103 z"
       id="SVGID_3_-8"
       inkscape:connector-curvature="0" />
    <path
       d="m 371.222,253.175 c 1.456,7.321 23.1,28.229 29.102,29.103 4.721,0.686 12.623,-0.409 20.659,-8.444 v -10e-4 c 8.034,-8.035 9.131,-15.937 8.443,-20.659 -0.874,-6.002 -21.782,-27.645 -29.103,-29.101 z"
       id="SVGID_6_-0"
       inkscape:connector-curvature="0" />
    <rect
       height="612"
       width="792"
       id="SVGID_9_-99"
       x="0"
       y="0" />
  </defs>
  <sodipodi:namedview
     id="base"
     pagecolor="#ffffff"
     bordercolor="#666666"
     borderopacity="1.0"
     inkscape:pageopacity="0.0"
     inkscape:pageshadow="2"
     inkscape:zoom="1.4"
     inkscape:cx="134.06847"
     inkscape:cy="8.5866146"
     inkscape:document-units="mm"
     inkscape:current-layer="layer3"
     showgrid="false"
     inkscape:window-width="1920"
     inkscape:window-height="1001"
     inkscape:window-x="-9"
     inkscape:window-y="-9"
     inkscape:window-maximized="1" />
  <metadata
     id="metadata5">
    <rdf:RDF>
      <cc:Work
         rdf:about="">
        <dc:format>image/svg+xml</dc:format>
        <dc:type
           rdf:resource="http://purl.org/dc/dcmitype/StillImage" />
        <dc:title></dc:title>
      </cc:Work>
    </rdf:RDF>
  </metadata>
  <g
     inkscape:groupmode="layer"
     id="layer3"
     inkscape:label="Layer 2"
     transform="translate(-30.008303,-108.38933)">
    <g
       id="g5498"
       transform="matrix(0.26458333,0,0,0.26458333,-26.395635,108.30232)">
      <g
         id="g5279"
         transform="matrix(0.73854234,0,0,0.73854234,-25.044161,-176.35114)">
        <defs
           id="defs5254">
          <rect
             height="612"
             width="792"
             id="rect5414"
             x="0"
             y="0" />
        </defs>
        <clipPath
           id="SVGID_2_-4">
          <use
             id="use5256"
             overflow="visible"
             xlink:href="#SVGID_1_-4"
             style="overflow:visible"
             x="0"
             y="0"
             width="100%"
             height="100%" />
        </clipPath>
        <path
           id="path5259"
           d="m 384.09,292.066 c -0.988,8.343 -6.074,15.185 -12.972,18.79 h -0.036 c -1.628,0.86 -3.385,1.537 -5.197,1.994 -0.127,0.037 -0.237,0.073 -0.347,0.091 -2.982,0.86 -6.111,1.318 -9.367,1.318 -1.939,0 -3.842,-0.165 -5.69,-0.476 -1.849,-0.312 -3.641,-0.751 -5.361,-1.354 1.628,-1.134 3.074,-2.451 4.318,-3.97 0.201,-0.257 0.402,-0.513 0.604,-0.769 0.073,-0.109 0.146,-0.22 0.219,-0.329 0.129,-0.165 0.256,-0.348 0.366,-0.53 0.384,-0.586 0.732,-1.19 1.062,-1.812 0.145,-0.311 0.31,-0.603 0.438,-0.914 0.147,-0.33 0.293,-0.659 0.421,-0.988 1.043,-2.598 1.538,-5.434 1.409,-8.38 -0.018,-0.329 -0.037,-0.658 -0.074,-0.988 -0.384,-4.116 -1.976,-7.83 -4.372,-10.831 -0.914,-1.116 -1.921,-2.122 -3.037,-3.037 -0.897,-1.08 -1.719,-2.25 -2.451,-3.494 -0.733,-1.281 -1.372,-2.672 -1.885,-4.099 -0.22,-0.622 -0.402,-1.225 -0.585,-1.866 1.702,-10.392 7.391,-19.229 15.312,-25.083 3.642,-2.708 7.758,-4.794 12.168,-6.111 -1.262,2.342 -2.141,4.903 -2.617,7.648 -0.055,0.384 -0.11,0.786 -0.164,1.189 -0.11,1.006 -0.183,1.994 -0.183,2.964 0,7.19 3.11,13.795 8.16,18.405 0.713,0.512 1.408,1.08 2.049,1.665 5.635,5.141 8.781,12.843 7.812,20.967"
           clip-path="url(#SVGID_2_-4)"
           inkscape:connector-curvature="0"
           style="fill:#f68933" />
        <path
           id="path5261"
           d="m 371.756,299.174 c -0.259,1.143 -0.64,2.273 -1.13,3.375 -1.443,3.239 -3.675,5.879 -6.37,7.798 -3.129,2.137 -6.817,3.389 -10.656,3.553 -0.259,0.013 -0.503,0.013 -0.761,0.013 h -0.109 c -1.076,0 -2.178,-0.095 -3.267,-0.271 -1.102,-0.177 -2.191,-0.436 -3.28,-0.803 -1.769,-0.613 -3.389,-1.416 -4.872,-2.437 -0.109,-0.055 -0.204,-0.123 -0.313,-0.19 -0.912,-0.64 -1.756,-1.348 -2.545,-2.109 v -0.014 c -3.198,-3.334 -4.75,-8.139 -3.729,-12.998 1.007,-4.763 4.232,-8.479 8.37,-10.289 0.476,-0.204 0.966,-0.395 1.456,-0.558 h 0.014 c 4.218,-1.837 7.512,-5.621 8.533,-10.466 0.04,-0.231 0.082,-0.476 0.122,-0.708 0.259,-1.619 0.245,-3.238 -0.014,-4.776 2.219,1.565 4.138,3.525 5.676,5.729 3.321,4.791 4.845,10.834 3.825,16.985 0.449,-0.68 0.857,-1.415 1.197,-2.191 0.707,-1.565 1.103,-3.185 1.239,-4.818 0.108,-1.497 0,-2.994 -0.327,-4.436 5.933,4.572 8.696,12.276 6.941,19.611"
           clip-path="url(#SVGID_2_-4)"
           inkscape:connector-curvature="0"
           style="fill:#ffffff" />
        <path
           id="path5263"
           d="m 364.257,310.348 c -3.103,2.205 -6.832,3.457 -10.656,3.553 3.838,-0.165 7.526,-1.417 10.656,-3.553"
           clip-path="url(#SVGID_2_-4)"
           inkscape:connector-curvature="0"
           style="fill:#ffffff" />
        <path
           id="path5265"
           d="m 340.998,310.212 c -0.926,-0.612 -1.783,-1.32 -2.545,-2.109 0.79,0.761 1.633,1.469 2.545,2.109"
           clip-path="url(#SVGID_2_-4)"
           inkscape:connector-curvature="0"
           style="fill:#ffffff" />
        <path
           id="path5267"
           d="m 340.998,310.212 c -0.926,-0.612 -1.783,-1.32 -2.545,-2.109 0.79,0.761 1.633,1.469 2.545,2.109"
           clip-path="url(#SVGID_2_-4)"
           inkscape:connector-curvature="0"
           style="fill:#f06724" />
        <path
           id="path5269"
           d="m 344.556,284.251 c -0.478,0.211 -0.967,0.391 -1.466,0.547 0.475,-0.206 0.967,-0.39 1.466,-0.547"
           clip-path="url(#SVGID_2_-4)"
           inkscape:connector-curvature="0"
           style="fill:#ffffff" />
        <path
           id="path5271"
           d="m 352.594,303.121 c -0.136,0.327 -0.272,0.653 -0.422,0.98 -0.136,0.313 -0.286,0.612 -0.435,0.912 0.326,-0.613 0.612,-1.239 0.857,-1.892"
           clip-path="url(#SVGID_2_-4)"
           inkscape:connector-curvature="0"
           style="fill:#f89f1f" />
        <path
           id="path5273"
           d="m 353.995,294.738 c 0.136,2.953 -0.367,5.784 -1.401,8.383 -0.137,0.327 -0.273,0.654 -0.422,0.98 -0.136,0.313 -0.286,0.613 -0.436,0.912 -0.326,0.626 -0.68,1.239 -1.075,1.824 -0.109,0.177 -0.231,0.354 -0.354,0.53 -0.081,0.109 -0.15,0.218 -0.231,0.327 -0.19,0.258 -0.395,0.517 -0.599,0.762 -1.239,1.524 -2.695,2.858 -4.328,3.974 -0.055,-0.014 -0.109,-0.025 -0.163,-0.04 -6.588,-2.123 -12.303,-6.329 -16.318,-11.895 -3.28,-4.519 -5.417,-9.949 -5.975,-15.91 -0.177,-2.028 -0.177,-4.042 0,-6.002 1.171,-12.684 9.758,-23.504 21.721,-27.6 -1.307,2.123 -2.3,4.463 -2.926,6.927 -0.667,2.654 -0.898,5.471 -0.626,8.37 0.123,1.416 0.381,2.804 0.735,4.137 0.177,0.64 0.367,1.252 0.585,1.865 0.504,1.429 1.143,2.817 1.892,4.11 0.721,1.239 1.538,2.409 2.45,3.497 1.102,0.899 2.123,1.92 3.021,3.036 2.408,2.994 4.001,6.709 4.382,10.833 0.027,0.327 0.055,0.653 0.068,0.98"
           clip-path="url(#SVGID_2_-4)"
           inkscape:connector-curvature="0"
           style="fill:#ffcf35" />
      </g>
    </g>
  </g>
  <g
     inkscape:label="Layer 1"
     inkscape:groupmode="layer"
     id="layer1"
     transform="translate(-30.008303,-108.38933)" />
</svg>
