<?xml version="1.0" encoding="UTF-8" standalone="no"?>
<!-- Created with Inkscape (http://www.inkscape.org/) -->

<svg
   xmlns:dc="http://purl.org/dc/elements/1.1/"
   xmlns:cc="http://creativecommons.org/ns#"
   xmlns:rdf="http://www.w3.org/1999/02/22-rdf-syntax-ns#"
   xmlns:svg="http://www.w3.org/2000/svg"
   xmlns="http://www.w3.org/2000/svg"
   xmlns:xlink="http://www.w3.org/1999/xlink"
   xmlns:sodipodi="http://sodipodi.sourceforge.net/DTD/sodipodi-0.dtd"
   xmlns:inkscape="http://www.inkscape.org/namespaces/inkscape"
   width="134.97533mm"
   height="47.757675mm"
   viewBox="0 0 134.97533 47.757675"
   version="1.1"
   id="svg8"
   inkscape:version="0.92.3 (2405546, 2018-03-11)"
   sodipodi:docname="final-logo-top.svg">
  <defs
     id="defs2">
    <rect
       height="612"
       width="792"
       id="SVGID_1_"
       x="0"
       y="0" />
    <path
       d="m 325.974,207.788 c 1.455,7.32 23.099,28.228 29.102,29.101 4.72,0.687 12.623,-0.408 20.659,-8.443 v -0.001 c 8.035,-8.035 9.129,-15.938 8.443,-20.658 -0.873,-6.002 -21.781,-27.647 -29.102,-29.103 z"
       id="SVGID_3_"
       inkscape:connector-curvature="0" />
    <path
       d="m 371.222,253.175 c 1.456,7.321 23.1,28.229 29.102,29.103 4.721,0.686 12.623,-0.409 20.659,-8.444 v -10e-4 c 8.034,-8.035 9.131,-15.937 8.443,-20.659 -0.874,-6.002 -21.782,-27.645 -29.103,-29.101 z"
       id="SVGID_6_"
       inkscape:connector-curvature="0" />
    <rect
       height="612"
       width="792"
       id="SVGID_9_"
       x="0"
       y="0" />
    <rect
       height="257"
       width="792"
       id="SVGID_1_-1"
       x="0"
       y="0" />
    <path
       d="m 627.247,71.78 c 1.519,7.642 24.112,29.466 30.378,30.377 4.926,0.717 13.177,-0.426 21.563,-8.812 l 0.003,-0.001 c 8.387,-8.388 9.529,-16.637 8.812,-21.565 -0.911,-6.266 -22.736,-28.857 -30.377,-30.377 z"
       id="SVGID_3_-2"
       inkscape:connector-curvature="0" />
    <path
       d="m 674.479,119.157 c 1.521,7.643 24.112,29.466 30.378,30.378 4.928,0.717 13.177,-0.425 21.564,-8.813 8.388,-8.388 9.53,-16.637 8.813,-21.564 -0.911,-6.265 -22.736,-28.857 -30.377,-30.377 z"
       id="SVGID_6_-6"
       inkscape:connector-curvature="0" />
    <rect
       height="257"
       width="792"
       id="SVGID_9_-9"
       x="0"
       y="0" />
    <rect
       height="500"
       width="1500"
       id="SVGID_1_-9"
       x="0"
       y="0" />
    <linearGradient
       gradientTransform="matrix(-15.256,29.0818,29.0818,15.256,-17392.613,-9089.2715)"
       y2="611.95898"
       x2="1"
       y1="611.95898"
       x1="0"
       gradientUnits="userSpaceOnUse"
       id="SVGID_8_-5">
      <stop
         id="stop3780-3"
         style="stop-color:#E6E7E7"
         offset="0" />
      <stop
         id="stop3782-8"
         style="stop-color:#E6E6E5"
         offset="0.3446" />
      <stop
         id="stop3784-5"
         style="stop-color:#E7E3DF"
         offset="0.4867" />
      <stop
         id="stop3786-9"
         style="stop-color:#E8DDD3"
         offset="0.5915" />
      <stop
         id="stop3788-4"
         style="stop-color:#EAD5C3"
         offset="0.678" />
      <stop
         id="stop3790-8"
         style="stop-color:#ECCBAF"
         offset="0.7532" />
      <stop
         id="stop3792-5"
         style="stop-color:#EEBF97"
         offset="0.8205" />
      <stop
         id="stop3794-2"
         style="stop-color:#F0B07C"
         offset="0.882" />
      <stop
         id="stop3796-2"
         style="stop-color:#F29F5E"
         offset="0.9389" />
      <stop
         id="stop3798-8"
         style="stop-color:#F58D3A"
         offset="0.9901" />
      <stop
         id="stop3800-7"
         style="stop-color:#F68933"
         offset="1" />
    </linearGradient>
    <clipPath
       id="SVGID_7_-5">
      <use
         id="use3777-3"
         overflow="visible"
         xlink:href="#SVGID_6_"
         style="overflow:visible"
         x="0"
         y="0"
         width="100%"
         height="100%" />
    </clipPath>
    <linearGradient
       gradientTransform="matrix(-21.7755,41.5095,41.5095,21.7755,-25036.584,-13137.92)"
       y2="611.9707"
       x2="1"
       y1="611.9707"
       x1="0"
       gradientUnits="userSpaceOnUse"
       id="SVGID_5_-2">
      <stop
         id="stop3747-7"
         style="stop-color:#E6E7E7"
         offset="0" />
      <stop
         id="stop3749-8"
         style="stop-color:#E6E6E5"
         offset="0.3446" />
      <stop
         id="stop3751-7"
         style="stop-color:#E7E3DF"
         offset="0.4867" />
      <stop
         id="stop3753-5"
         style="stop-color:#E8DDD3"
         offset="0.5915" />
      <stop
         id="stop3755-1"
         style="stop-color:#EAD5C3"
         offset="0.678" />
      <stop
         id="stop3757-9"
         style="stop-color:#ECCBAF"
         offset="0.7532" />
      <stop
         id="stop3759-7"
         style="stop-color:#EEBF97"
         offset="0.8205" />
      <stop
         id="stop3761-4"
         style="stop-color:#F0B07C"
         offset="0.882" />
      <stop
         id="stop3763-2"
         style="stop-color:#F29F5E"
         offset="0.9389" />
      <stop
         id="stop3765-1"
         style="stop-color:#F58D3A"
         offset="0.9901" />
      <stop
         id="stop3767-1"
         style="stop-color:#F68933"
         offset="1" />
    </linearGradient>
    <clipPath
       id="SVGID_4_-0">
      <use
         id="use3744-5"
         overflow="visible"
         xlink:href="#SVGID_3_"
         style="overflow:visible"
         x="0"
         y="0"
         width="100%"
         height="100%" />
    </clipPath>
    <clipPath
       id="SVGID_2_-00">
      <use
         id="use3716-3"
         overflow="visible"
         xlink:href="#SVGID_1_"
         style="overflow:visible"
         x="0"
         y="0"
         width="100%"
         height="100%" />
    </clipPath>
    <clipPath
       id="clipPath4930">
      <use
         id="use4928"
         overflow="visible"
         xlink:href="#SVGID_1_"
         style="overflow:visible"
         x="0"
         y="0"
         width="100%"
         height="100%" />
    </clipPath>
    <clipPath
       id="clipPath4934">
      <use
         id="use4932"
         overflow="visible"
         xlink:href="#SVGID_1_"
         style="overflow:visible"
         x="0"
         y="0"
         width="100%"
         height="100%" />
    </clipPath>
    <clipPath
       id="clipPath4938">
      <use
         id="use4936"
         overflow="visible"
         xlink:href="#SVGID_1_"
         style="overflow:visible"
         x="0"
         y="0"
         width="100%"
         height="100%" />
    </clipPath>
    <clipPath
       id="clipPath4942">
      <use
         id="use4940"
         overflow="visible"
         xlink:href="#SVGID_1_"
         style="overflow:visible"
         x="0"
         y="0"
         width="100%"
         height="100%" />
    </clipPath>
    <clipPath
       id="clipPath4946">
      <use
         id="use4944"
         overflow="visible"
         xlink:href="#SVGID_1_"
         style="overflow:visible"
         x="0"
         y="0"
         width="100%"
         height="100%" />
    </clipPath>
    <clipPath
       id="clipPath4950">
      <use
         id="use4948"
         overflow="visible"
         xlink:href="#SVGID_1_"
         style="overflow:visible"
         x="0"
         y="0"
         width="100%"
         height="100%" />
    </clipPath>
    <clipPath
       id="clipPath4954">
      <use
         id="use4952"
         overflow="visible"
         xlink:href="#SVGID_1_"
         style="overflow:visible"
         x="0"
         y="0"
         width="100%"
         height="100%" />
    </clipPath>
    <clipPath
       id="clipPath4958">
      <use
         id="use4956"
         overflow="visible"
         xlink:href="#SVGID_1_"
         style="overflow:visible"
         x="0"
         y="0"
         width="100%"
         height="100%" />
    </clipPath>
    <clipPath
       id="clipPath4962">
      <use
         id="use4960"
         overflow="visible"
         xlink:href="#SVGID_1_"
         style="overflow:visible"
         x="0"
         y="0"
         width="100%"
         height="100%" />
    </clipPath>
    <rect
       height="612"
       width="792"
       id="rect3874-6"
       x="0"
       y="0" />
    <path
       d="m 325.974,207.788 c 1.455,7.32 23.099,28.228 29.102,29.101 4.72,0.687 12.623,-0.408 20.659,-8.443 v -0.001 c 8.035,-8.035 9.129,-15.938 8.443,-20.658 -0.873,-6.002 -21.781,-27.647 -29.102,-29.103 z"
       id="path3890-5"
       inkscape:connector-curvature="0" />
    <path
       d="m 371.222,253.175 c 1.456,7.321 23.1,28.229 29.102,29.103 4.721,0.686 12.623,-0.409 20.659,-8.444 v -10e-4 c 8.034,-8.035 9.131,-15.937 8.443,-20.659 -0.874,-6.002 -21.782,-27.645 -29.103,-29.101 z"
       id="path3909-4"
       inkscape:connector-curvature="0" />
    <rect
       height="612"
       width="792"
       id="SVGID_1_-4"
       x="0"
       y="0" />
    <path
       d="m 325.974,207.788 c 1.455,7.32 23.099,28.228 29.102,29.101 4.72,0.687 12.623,-0.408 20.659,-8.443 v -0.001 c 8.035,-8.035 9.129,-15.938 8.443,-20.658 -0.873,-6.002 -21.781,-27.647 -29.102,-29.103 z"
       id="SVGID_3_-8"
       inkscape:connector-curvature="0" />
    <path
       d="m 371.222,253.175 c 1.456,7.321 23.1,28.229 29.102,29.103 4.721,0.686 12.623,-0.409 20.659,-8.444 v -10e-4 c 8.034,-8.035 9.131,-15.937 8.443,-20.659 -0.874,-6.002 -21.782,-27.645 -29.103,-29.101 z"
       id="SVGID_6_-0"
       inkscape:connector-curvature="0" />
    <rect
       height="612"
       width="792"
       id="SVGID_9_-99"
       x="0"
       y="0" />
  </defs>
  <sodipodi:namedview
     id="base"
     pagecolor="#ffffff"
     bordercolor="#666666"
     borderopacity="1.0"
     inkscape:pageopacity="0.0"
     inkscape:pageshadow="2"
     inkscape:zoom="0.98994949"
     inkscape:cx="27.510748"
     inkscape:cy="113.92451"
     inkscape:document-units="mm"
     inkscape:current-layer="g3958"
     showgrid="false"
     inkscape:window-width="1920"
     inkscape:window-height="1001"
     inkscape:window-x="-9"
     inkscape:window-y="-9"
     inkscape:window-maximized="1" />
  <metadata
     id="metadata5">
    <rdf:RDF>
      <cc:Work
         rdf:about="">
        <dc:format>image/svg+xml</dc:format>
        <dc:type
           rdf:resource="http://purl.org/dc/dcmitype/StillImage" />
        <dc:title></dc:title>
      </cc:Work>
    </rdf:RDF>
  </metadata>
  <g
     inkscape:groupmode="layer"
     id="layer3"
     inkscape:label="icon"
     transform="translate(-54.774099,-72.30913)">
    <g
       id="g5498"
       transform="matrix(0.24117855,0,0,0.24117855,51.48728,83.101305)">
      <g
         id="g5279"
         transform="matrix(0.73854234,0,0,0.73854234,-25.044161,-176.35114)">
        <defs
           id="defs5254">
          <rect
             height="612"
             width="792"
             id="rect5414"
             x="0"
             y="0" />
        </defs>
        <clipPath
           id="SVGID_2_-4">
          <use
             id="use5256"
             overflow="visible"
             xlink:href="#SVGID_1_-4"
             style="overflow:visible"
             x="0"
             y="0"
             width="100%"
             height="100%" />
        </clipPath>
        <path
           id="path5259"
           d="m 384.09,292.066 c -0.988,8.343 -6.074,15.185 -12.972,18.79 h -0.036 c -1.628,0.86 -3.385,1.537 -5.197,1.994 -0.127,0.037 -0.237,0.073 -0.347,0.091 -2.982,0.86 -6.111,1.318 -9.367,1.318 -1.939,0 -3.842,-0.165 -5.69,-0.476 -1.849,-0.312 -3.641,-0.751 -5.361,-1.354 1.628,-1.134 3.074,-2.451 4.318,-3.97 0.201,-0.257 0.402,-0.513 0.604,-0.769 0.073,-0.109 0.146,-0.22 0.219,-0.329 0.129,-0.165 0.256,-0.348 0.366,-0.53 0.384,-0.586 0.732,-1.19 1.062,-1.812 0.145,-0.311 0.31,-0.603 0.438,-0.914 0.147,-0.33 0.293,-0.659 0.421,-0.988 1.043,-2.598 1.538,-5.434 1.409,-8.38 -0.018,-0.329 -0.037,-0.658 -0.074,-0.988 -0.384,-4.116 -1.976,-7.83 -4.372,-10.831 -0.914,-1.116 -1.921,-2.122 -3.037,-3.037 -0.897,-1.08 -1.719,-2.25 -2.451,-3.494 -0.733,-1.281 -1.372,-2.672 -1.885,-4.099 -0.22,-0.622 -0.402,-1.225 -0.585,-1.866 1.702,-10.392 7.391,-19.229 15.312,-25.083 3.642,-2.708 7.758,-4.794 12.168,-6.111 -1.262,2.342 -2.141,4.903 -2.617,7.648 -0.055,0.384 -0.11,0.786 -0.164,1.189 -0.11,1.006 -0.183,1.994 -0.183,2.964 0,7.19 3.11,13.795 8.16,18.405 0.713,0.512 1.408,1.08 2.049,1.665 5.635,5.141 8.781,12.843 7.812,20.967"
           clip-path="url(#SVGID_2_-4)"
           inkscape:connector-curvature="0"
           style="fill:#f68933" />
        <path
           id="path5261"
           d="m 371.756,299.174 c -0.259,1.143 -0.64,2.273 -1.13,3.375 -1.443,3.239 -3.675,5.879 -6.37,7.798 -3.129,2.137 -6.817,3.389 -10.656,3.553 -0.259,0.013 -0.503,0.013 -0.761,0.013 h -0.109 c -1.076,0 -2.178,-0.095 -3.267,-0.271 -1.102,-0.177 -2.191,-0.436 -3.28,-0.803 -1.769,-0.613 -3.389,-1.416 -4.872,-2.437 -0.109,-0.055 -0.204,-0.123 -0.313,-0.19 -0.912,-0.64 -1.756,-1.348 -2.545,-2.109 v -0.014 c -3.198,-3.334 -4.75,-8.139 -3.729,-12.998 1.007,-4.763 4.232,-8.479 8.37,-10.289 0.476,-0.204 0.966,-0.395 1.456,-0.558 h 0.014 c 4.218,-1.837 7.512,-5.621 8.533,-10.466 0.04,-0.231 0.082,-0.476 0.122,-0.708 0.259,-1.619 0.245,-3.238 -0.014,-4.776 2.219,1.565 4.138,3.525 5.676,5.729 3.321,4.791 4.845,10.834 3.825,16.985 0.449,-0.68 0.857,-1.415 1.197,-2.191 0.707,-1.565 1.103,-3.185 1.239,-4.818 0.108,-1.497 0,-2.994 -0.327,-4.436 5.933,4.572 8.696,12.276 6.941,19.611"
           clip-path="url(#SVGID_2_-4)"
           inkscape:connector-curvature="0"
           style="fill:#ffffff" />
        <path
           id="path5263"
           d="m 364.257,310.348 c -3.103,2.205 -6.832,3.457 -10.656,3.553 3.838,-0.165 7.526,-1.417 10.656,-3.553"
           clip-path="url(#SVGID_2_-4)"
           inkscape:connector-curvature="0"
           style="fill:#ffffff" />
        <path
           id="path5265"
           d="m 340.998,310.212 c -0.926,-0.612 -1.783,-1.32 -2.545,-2.109 0.79,0.761 1.633,1.469 2.545,2.109"
           clip-path="url(#SVGID_2_-4)"
           inkscape:connector-curvature="0"
           style="fill:#ffffff" />
        <path
           id="path5267"
           d="m 340.998,310.212 c -0.926,-0.612 -1.783,-1.32 -2.545,-2.109 0.79,0.761 1.633,1.469 2.545,2.109"
           clip-path="url(#SVGID_2_-4)"
           inkscape:connector-curvature="0"
           style="fill:#f06724" />
        <path
           id="path5269"
           d="m 344.556,284.251 c -0.478,0.211 -0.967,0.391 -1.466,0.547 0.475,-0.206 0.967,-0.39 1.466,-0.547"
           clip-path="url(#SVGID_2_-4)"
           inkscape:connector-curvature="0"
           style="fill:#ffffff" />
        <path
           id="path5271"
           d="m 352.594,303.121 c -0.136,0.327 -0.272,0.653 -0.422,0.98 -0.136,0.313 -0.286,0.612 -0.435,0.912 0.326,-0.613 0.612,-1.239 0.857,-1.892"
           clip-path="url(#SVGID_2_-4)"
           inkscape:connector-curvature="0"
           style="fill:#f89f1f" />
        <path
           id="path5273"
           d="m 353.995,294.738 c 0.136,2.953 -0.367,5.784 -1.401,8.383 -0.137,0.327 -0.273,0.654 -0.422,0.98 -0.136,0.313 -0.286,0.613 -0.436,0.912 -0.326,0.626 -0.68,1.239 -1.075,1.824 -0.109,0.177 -0.231,0.354 -0.354,0.53 -0.081,0.109 -0.15,0.218 -0.231,0.327 -0.19,0.258 -0.395,0.517 -0.599,0.762 -1.239,1.524 -2.695,2.858 -4.328,3.974 -0.055,-0.014 -0.109,-0.025 -0.163,-0.04 -6.588,-2.123 -12.303,-6.329 -16.318,-11.895 -3.28,-4.519 -5.417,-9.949 -5.975,-15.91 -0.177,-2.028 -0.177,-4.042 0,-6.002 1.171,-12.684 9.758,-23.504 21.721,-27.6 -1.307,2.123 -2.3,4.463 -2.926,6.927 -0.667,2.654 -0.898,5.471 -0.626,8.37 0.123,1.416 0.381,2.804 0.735,4.137 0.177,0.64 0.367,1.252 0.585,1.865 0.504,1.429 1.143,2.817 1.892,4.11 0.721,1.239 1.538,2.409 2.45,3.497 1.102,0.899 2.123,1.92 3.021,3.036 2.408,2.994 4.001,6.709 4.382,10.833 0.027,0.327 0.055,0.653 0.068,0.98"
           clip-path="url(#SVGID_2_-4)"
           inkscape:connector-curvature="0"
           style="fill:#ffcf35" />
        <path
           id="path5275"
           d="m 441.038,295.145 c -0.027,0 -0.057,0 -0.086,-10e-4 -0.924,-0.047 -1.636,-0.835 -1.59,-1.76 l 1.122,-22.24 c 0.045,-0.926 0.8,-1.65 1.76,-1.59 0.924,0.047 1.636,0.835 1.59,1.759 l -1.122,22.241 c -0.045,0.896 -0.787,1.591 -1.674,1.591"
           clip-path="url(#SVGID_2_-4)"
           inkscape:connector-curvature="0"
           style="fill:#f68933" />
        <path
           id="path5277"
           d="m 459.973,314.413 c -0.43,0 -0.858,-0.163 -1.186,-0.49 l -98.525,-98.524 c -0.654,-0.655 -0.654,-1.716 0,-2.371 0.654,-0.654 1.717,-0.654 2.371,0 l 98.525,98.523 c 0.653,0.655 0.653,1.716 0,2.371 -0.327,0.328 -0.757,0.491 -1.185,0.491"
           clip-path="url(#SVGID_2_-4)"
           inkscape:connector-curvature="0"
           style="fill:#f68933" />
      </g>
      <g
         id="g5312"
         transform="matrix(0.73854234,0,0,0.73854234,-25.044161,-176.35114)">
        <defs
           id="defs5282">
          <path
             d="m 325.974,207.788 c 1.455,7.32 23.099,28.228 29.102,29.101 4.72,0.687 12.623,-0.408 20.659,-8.443 v -0.001 c 8.035,-8.035 9.129,-15.938 8.443,-20.658 -0.873,-6.002 -21.781,-27.647 -29.102,-29.103 z"
             id="path5430"
             inkscape:connector-curvature="0" />
        </defs>
        <clipPath
           id="SVGID_4_-7">
          <use
             id="use5284"
             overflow="visible"
             xlink:href="#SVGID_3_-8"
             style="overflow:visible"
             x="0"
             y="0"
             width="100%"
             height="100%" />
        </clipPath>
        <linearGradient
           gradientTransform="matrix(-21.7755,41.5095,41.5095,21.7755,-25036.584,-13137.92)"
           y2="611.9707"
           x2="1"
           y1="611.9707"
           x1="0"
           gradientUnits="userSpaceOnUse"
           id="SVGID_5_-6">
          <stop
             id="stop5287"
             style="stop-color:#E6E7E7"
             offset="0" />
          <stop
             id="stop5289"
             style="stop-color:#E6E6E5"
             offset="0.3446" />
          <stop
             id="stop5291"
             style="stop-color:#E7E3DF"
             offset="0.4867" />
          <stop
             id="stop5293"
             style="stop-color:#E8DDD3"
             offset="0.5915" />
          <stop
             id="stop5295"
             style="stop-color:#EAD5C3"
             offset="0.678" />
          <stop
             id="stop5297"
             style="stop-color:#ECCBAF"
             offset="0.7532" />
          <stop
             id="stop5299"
             style="stop-color:#EEBF97"
             offset="0.8205" />
          <stop
             id="stop5301"
             style="stop-color:#F0B07C"
             offset="0.882" />
          <stop
             id="stop5303"
             style="stop-color:#F29F5E"
             offset="0.9389" />
          <stop
             id="stop5305"
             style="stop-color:#F58D3A"
             offset="0.9901" />
          <stop
             id="stop5307"
             style="stop-color:#F68933"
             offset="1" />
        </linearGradient>
        <polygon
           style="fill:url(#SVGID_5_-6)"
           id="polygon5310"
           points="338.683,154.458 409.091,191.393 372.155,261.802 301.747,224.867 "
           clip-path="url(#SVGID_4_-7)" />
      </g>
      <g
         id="g5345"
         transform="matrix(0.73854234,0,0,0.73854234,-25.044161,-176.35114)">
        <defs
           id="defs5315">
          <path
             d="m 371.222,253.175 c 1.456,7.321 23.1,28.229 29.102,29.103 4.721,0.686 12.623,-0.409 20.659,-8.444 v -10e-4 c 8.034,-8.035 9.131,-15.937 8.443,-20.659 -0.874,-6.002 -21.782,-27.645 -29.103,-29.101 z"
             id="path5449"
             inkscape:connector-curvature="0" />
        </defs>
        <clipPath
           id="SVGID_7_-4">
          <use
             id="use5317"
             overflow="visible"
             xlink:href="#SVGID_6_-0"
             style="overflow:visible"
             x="0"
             y="0"
             width="100%"
             height="100%" />
        </clipPath>
        <linearGradient
           gradientTransform="matrix(-15.256,29.0818,29.0818,15.256,-17392.613,-9089.2715)"
           y2="611.95898"
           x2="1"
           y1="611.95898"
           x1="0"
           gradientUnits="userSpaceOnUse"
           id="SVGID_8_-4">
          <stop
             id="stop5320"
             style="stop-color:#E6E7E7"
             offset="0" />
          <stop
             id="stop5322"
             style="stop-color:#E6E6E5"
             offset="0.3446" />
          <stop
             id="stop5324"
             style="stop-color:#E7E3DF"
             offset="0.4867" />
          <stop
             id="stop5326"
             style="stop-color:#E8DDD3"
             offset="0.5915" />
          <stop
             id="stop5328"
             style="stop-color:#EAD5C3"
             offset="0.678" />
          <stop
             id="stop5330"
             style="stop-color:#ECCBAF"
             offset="0.7532" />
          <stop
             id="stop5332"
             style="stop-color:#EEBF97"
             offset="0.8205" />
          <stop
             id="stop5334"
             style="stop-color:#F0B07C"
             offset="0.882" />
          <stop
             id="stop5336"
             style="stop-color:#F29F5E"
             offset="0.9389" />
          <stop
             id="stop5338"
             style="stop-color:#F58D3A"
             offset="0.9901" />
          <stop
             id="stop5340"
             style="stop-color:#F68933"
             offset="1" />
        </linearGradient>
        <polygon
           style="fill:url(#SVGID_8_-4)"
           id="polygon5343"
           points="383.931,199.846 454.341,236.782 417.404,307.191 346.995,270.255 "
           clip-path="url(#SVGID_7_-4)" />
      </g>
      <g
         id="g5401">
        <defs
           id="defs5348">
          <rect
             height="612"
             width="792"
             id="rect5468"
             x="0"
             y="0" />
        </defs>
        <clipPath
           id="SVGID_10_-1">
          <use
             id="use5350"
             overflow="visible"
             xlink:href="#SVGID_9_-99"
             style="overflow:visible"
             x="0"
             y="0"
             width="100%"
             height="100%" />
        </clipPath>
        <path
           id="path5353"
           d="m 356.104,179.442 c -3.412,-3.412 -12.766,0.41 -20.893,8.537 -8.126,8.126 -11.948,17.48 -8.536,20.892 3.412,3.412 12.766,-0.41 20.893,-8.536 8.125,-8.127 11.948,-17.481 8.536,-20.893"
           clip-path="url(#SVGID_10_-1)"
           inkscape:connector-curvature="0"
           style="fill:#f2f2f3"
           transform="matrix(0.73854234,0,0,0.73854234,-25.044161,-176.35114)" />
        <path
           id="path5355"
           d="m 401.288,224.626 c -3.412,-3.412 -12.766,0.41 -20.893,8.537 -8.127,8.126 -11.948,17.48 -8.536,20.892 3.412,3.412 12.765,-0.409 20.892,-8.536 8.127,-8.127 11.949,-17.48 8.537,-20.893"
           clip-path="url(#SVGID_10_-1)"
           inkscape:connector-curvature="0"
           style="fill:#f2f2f3"
           transform="matrix(0.73854234,0,0,0.73854234,-25.044161,-176.35114)" />
        <path
           id="path5357"
           d="m 387.863,237.964 c 0.568,0.568 0.425,1.632 -0.319,2.377 -0.744,0.745 -1.809,0.887 -2.377,0.319 -0.569,-0.568 -0.426,-1.633 0.319,-2.377 0.744,-0.743 1.809,-0.887 2.377,-0.319"
           clip-path="url(#SVGID_10_-1)"
           inkscape:connector-curvature="0"
           style="fill:#dcdbda"
           transform="matrix(0.73854234,0,0,0.73854234,-25.044161,-176.35114)" />
        <path
           id="path5359"
           d="m 386.15,240.592 c -0.429,0 -0.857,-0.164 -1.185,-0.491 l -6.815,-6.812 c -0.653,-0.655 -0.653,-1.716 0,-2.371 0.654,-0.654 1.715,-0.654 2.372,0 l 6.814,6.812 c 0.654,0.655 0.654,1.716 0,2.371 -0.327,0.327 -0.755,0.491 -1.186,0.491"
           clip-path="url(#SVGID_10_-1)"
           inkscape:connector-curvature="0"
           style="fill:#f68933"
           transform="matrix(0.73854234,0,0,0.73854234,-25.044161,-176.35114)" />
        <path
           id="path5361"
           d="m 343.178,193.223 c 0.568,0.568 0.425,1.632 -0.319,2.377 -0.744,0.745 -1.809,0.887 -2.377,0.319 -0.569,-0.568 -0.426,-1.633 0.319,-2.377 0.744,-0.744 1.809,-0.887 2.377,-0.319"
           clip-path="url(#SVGID_10_-1)"
           inkscape:connector-curvature="0"
           style="fill:#dcdbda"
           transform="matrix(0.73854234,0,0,0.73854234,-25.044161,-176.35114)" />
        <path
           id="path5363"
           d="m 417.031,288.098 c -0.818,0 -1.533,-0.599 -1.655,-1.434 -0.135,-0.916 0.501,-1.766 1.416,-1.9 l 13.317,-1.943 c 0.909,-0.138 1.767,0.499 1.9,1.416 0.135,0.916 -0.501,1.767 -1.416,1.901 l -13.317,1.943 c -0.083,0.012 -0.164,0.017 -0.245,0.017"
           clip-path="url(#SVGID_10_-1)"
           inkscape:connector-curvature="0"
           style="fill:#f68933"
           transform="matrix(0.73854234,0,0,0.73854234,-25.044161,-176.35114)" />
        <path
           id="path5365"
           d="m 341.391,195.832 c -0.429,0 -0.858,-0.163 -1.186,-0.49 l -12.23,-12.23 c -0.653,-0.655 -0.653,-1.717 0,-2.371 0.654,-0.654 1.718,-0.654 2.372,0 l 12.23,12.23 c 0.653,0.654 0.653,1.716 0,2.371 -0.328,0.326 -0.758,0.49 -1.186,0.49"
           clip-path="url(#SVGID_10_-1)"
           inkscape:connector-curvature="0"
           style="fill:#f68933"
           transform="matrix(0.73854234,0,0,0.73854234,-25.044161,-176.35114)" />
      </g>
    </g>
  </g>
  <g
     inkscape:label="text"
     inkscape:groupmode="layer"
     id="layer1"
     transform="translate(-54.774099,-72.30913)">
    <g
       id="g3958"
       transform="matrix(0.25959547,0,0,0.2579183,-3.1090501,48.936265)">
      <g
         id="g3861">
        <defs
           id="defs3808">
          <rect
             height="612"
             width="792"
             id="rect3928"
             x="0"
             y="0" />
        </defs>
        <clipPath
           id="SVGID_10_">
          <use
             id="use3810"
             overflow="visible"
             xlink:href="#SVGID_9_"
             style="overflow:visible"
             x="0"
             y="0"
             width="100%"
             height="100%" />
        </clipPath>
        <path
           id="path3827"
           d="m 105.922,393.063 v -15.709 h -0.309 c -2.227,0 -4.02,-1.793 -4.02,-4.02 0,-2.227 1.793,-4.02 4.02,-4.02 h 0.309 v -4.144 c 0,-2.598 2.104,-4.699 4.701,-4.699 2.597,0 4.7,2.102 4.7,4.699 v 4.144 h 4.143 c 2.227,0 4.019,1.793 4.019,4.02 0,2.227 -1.792,4.02 -4.019,4.02 h -4.143 v 14.163 c 0,2.164 0.928,3.216 3.03,3.216 0.309,0 0.928,-0.063 1.113,-0.063 2.103,0 3.896,1.733 3.896,3.896 0,1.67 -1.113,3.03 -2.411,3.525 -1.733,0.68 -3.34,0.928 -5.382,0.928 -5.751,10e-4 -9.647,-2.288 -9.647,-9.956"
           clip-path="url(#SVGID_10_)"
           inkscape:connector-curvature="0"
           style="fill:#ffcf35"
           transform="matrix(0.87645683,0,0,0.87645683,133.93254,-115.84466)" />
        <path
           id="path3829"
           d="M 137.404,398.876 129.302,375.5 c -0.186,-0.557 -0.434,-1.484 -0.434,-2.288 0,-2.165 1.732,-4.268 4.515,-4.268 2.351,0 3.896,1.484 4.577,3.649 l 5.07,16.82 5.196,-16.759 c 0.679,-2.227 2.411,-3.773 4.824,-3.773 h 0.556 c 2.411,0 4.144,1.547 4.824,3.773 l 5.256,16.82 5.196,-16.945 c 0.618,-1.979 2.04,-3.586 4.514,-3.586 2.597,0 4.39,1.979 4.39,4.329 0,0.618 -0.185,1.483 -0.309,1.917 l -8.348,23.686 c -0.99,2.907 -2.908,4.205 -5.196,4.205 h -0.309 c -2.288,0 -4.205,-1.298 -5.071,-4.019 l -5.256,-16.698 -5.319,16.698 c -0.866,2.721 -2.783,4.019 -5.071,4.019 h -0.309 c -2.288,0.001 -4.205,-1.297 -5.194,-4.204"
           clip-path="url(#SVGID_10_)"
           inkscape:connector-curvature="0"
           style="fill:#ffcf35"
           transform="matrix(0.87645683,0,0,0.87645683,133.93254,-115.84466)" />
        <path
           id="path3831"
           d="m 182.616,386.074 v -0.123 c 0,-9.524 7.668,-17.254 17.997,-17.254 10.265,0 17.872,7.605 17.872,17.13 v 0.124 c 0,9.523 -7.669,17.254 -17.997,17.254 -10.265,0 -17.872,-7.606 -17.872,-17.131 m 26.592,0 v -0.123 c 0,-4.885 -3.524,-9.153 -8.72,-9.153 -5.38,0 -8.595,4.144 -8.595,9.029 v 0.124 c 0,4.886 3.524,9.152 8.72,9.152 5.38,10e-4 8.595,-4.142 8.595,-9.029"
           clip-path="url(#SVGID_10_)"
           inkscape:connector-curvature="0"
           style="fill:#ffcf35"
           transform="matrix(0.87645683,0,0,0.87645683,133.93254,-115.84466)" />
        <path
           id="path3833"
           d="m 226.527,373.644 c 0,-2.597 2.102,-4.699 4.701,-4.699 2.597,0 4.699,2.103 4.699,4.699 v 0.372 c 2.165,-2.783 5.01,-5.318 9.771,-5.318 4.329,0 7.607,1.917 9.339,5.256 2.906,-3.401 6.369,-5.256 10.884,-5.256 6.988,0 11.193,4.205 11.193,12.183 v 17.254 c 0,2.598 -2.103,4.699 -4.7,4.699 -2.597,0 -4.699,-2.102 -4.699,-4.699 v -14.161 c 0,-4.453 -1.979,-6.741 -5.505,-6.741 -3.524,0 -5.689,2.288 -5.689,6.741 v 14.161 c 0,2.598 -2.102,4.699 -4.701,4.699 -2.597,0 -4.699,-2.102 -4.699,-4.699 v -14.161 c 0,-4.453 -1.979,-6.741 -5.505,-6.741 -3.524,0 -5.689,2.288 -5.689,6.741 v 14.161 c 0,2.598 -2.102,4.699 -4.699,4.699 -2.599,0 -4.701,-2.102 -4.701,-4.699 z"
           clip-path="url(#SVGID_10_)"
           inkscape:connector-curvature="0"
           style="fill:#f68933"
           transform="matrix(0.87645683,0,0,0.87645683,133.93254,-115.84466)" />
        <path
           id="path3835"
           d="m 284.542,392.938 v -0.123 c 0,-7.234 5.504,-10.574 13.358,-10.574 3.34,0 5.751,0.557 8.102,1.36 v -0.557 c 0,-3.896 -2.413,-6.062 -7.112,-6.062 -2.598,0 -4.7,0.371 -6.493,0.928 -0.557,0.186 -0.929,0.247 -1.361,0.247 -2.165,0 -3.896,-1.67 -3.896,-3.833 0,-1.67 1.051,-3.093 2.535,-3.649 2.97,-1.113 6.185,-1.731 10.575,-1.731 5.134,0 8.844,1.36 11.194,3.711 2.474,2.475 3.587,6.121 3.587,10.574 v 15.09 c 0,2.535 -2.04,4.514 -4.576,4.514 -2.722,0 -4.515,-1.916 -4.515,-3.895 v -0.063 c -2.289,2.535 -5.443,4.205 -10.019,4.205 -6.246,0.001 -11.379,-3.585 -11.379,-10.142 m 21.583,-2.163 v -1.67 c -1.607,-0.743 -3.71,-1.236 -5.999,-1.236 -4.019,0 -6.493,1.606 -6.493,4.576 v 0.123 c 0,2.535 2.102,4.02 5.133,4.02 4.391,0 7.359,-2.411 7.359,-5.813"
           clip-path="url(#SVGID_10_)"
           inkscape:connector-curvature="0"
           style="fill:#f68933"
           transform="matrix(0.87645683,0,0,0.87645683,133.93254,-115.84466)" />
        <path
           id="path3837"
           d="m 324.372,373.644 c 0,-2.597 2.102,-4.699 4.699,-4.699 2.599,0 4.701,2.103 4.701,4.699 v 1.485 c 1.361,-3.216 3.587,-6.185 6.37,-6.185 2.906,0 4.576,1.917 4.576,4.576 0,2.476 -1.608,3.958 -3.525,4.391 -4.761,1.113 -7.421,4.762 -7.421,11.441 v 8.781 c 0,2.598 -2.102,4.699 -4.701,4.699 -2.597,0 -4.699,-2.102 -4.699,-4.699 z"
           clip-path="url(#SVGID_10_)"
           inkscape:connector-curvature="0"
           style="fill:#f68933"
           transform="matrix(0.87645683,0,0,0.87645683,133.93254,-115.84466)" />
        <path
           id="path3839"
           d="m 350.597,399.309 c -0.99,-0.618 -1.794,-1.73 -1.794,-3.216 0,-2.103 1.608,-3.711 3.711,-3.711 0.68,0 1.36,0.187 1.855,0.495 3.153,1.979 6.307,2.97 8.967,2.97 2.722,0 3.958,-0.99 3.958,-2.475 v -0.124 c 0,-2.041 -3.217,-2.721 -6.864,-3.834 -4.639,-1.36 -9.895,-3.524 -9.895,-9.956 v -0.125 c 0,-6.739 5.442,-10.513 12.12,-10.513 3.464,0 7.05,0.929 10.267,2.535 1.361,0.682 2.227,1.918 2.227,3.526 0,2.102 -1.67,3.71 -3.774,3.71 -0.679,0 -1.113,-0.124 -1.731,-0.434 -2.659,-1.298 -5.194,-2.102 -7.173,-2.102 -2.289,0 -3.463,0.988 -3.463,2.288 v 0.123 c 0,1.855 3.153,2.722 6.739,3.958 4.64,1.547 10.02,3.773 10.02,9.833 v 0.123 c 0,7.359 -5.505,10.699 -12.678,10.699 -4.081,0.002 -8.473,-1.173 -12.492,-3.77"
           clip-path="url(#SVGID_10_)"
           inkscape:connector-curvature="0"
           style="fill:#f68933"
           transform="matrix(0.87645683,0,0,0.87645683,133.93254,-115.84466)" />
        <path
           id="path3841"
           d="m 383.747,361.647 c 0,-2.598 2.102,-4.701 4.699,-4.701 2.599,0 4.701,2.104 4.701,4.701 v 12.368 c 2.165,-2.783 4.948,-5.318 9.709,-5.318 7.113,0 11.256,4.699 11.256,12.306 v 17.131 c 0,2.598 -2.103,4.7 -4.699,4.7 -2.599,0 -4.701,-2.103 -4.701,-4.7 v -14.161 c 0,-4.453 -2.102,-6.741 -5.689,-6.741 -3.587,0 -5.875,2.288 -5.875,6.741 v 14.161 c 0,2.598 -2.102,4.7 -4.701,4.7 -2.597,0 -4.699,-2.103 -4.699,-4.7 v -36.487 z"
           clip-path="url(#SVGID_10_)"
           inkscape:connector-curvature="0"
           style="fill:#f68933"
           transform="matrix(0.87645683,0,0,0.87645683,133.93254,-115.84466)" />
        <path
           id="path3843"
           d="m 423.515,373.644 c 0,-2.597 2.103,-4.699 4.7,-4.699 2.597,0 4.699,2.103 4.699,4.699 v 0.372 c 2.164,-2.783 5.01,-5.318 9.772,-5.318 4.328,0 7.606,1.917 9.338,5.256 2.906,-3.401 6.369,-5.256 10.884,-5.256 6.988,0 11.194,4.205 11.194,12.183 v 17.254 c 0,2.598 -2.104,4.699 -4.701,4.699 -2.597,0 -4.699,-2.102 -4.699,-4.699 v -14.161 c 0,-4.453 -1.979,-6.741 -5.505,-6.741 -3.524,0 -5.688,2.288 -5.688,6.741 v 14.161 c 0,2.598 -2.103,4.699 -4.701,4.699 -2.597,0 -4.699,-2.102 -4.699,-4.699 v -14.161 c 0,-4.453 -1.979,-6.741 -5.505,-6.741 -3.525,0 -5.689,2.288 -5.689,6.741 v 14.161 c 0,2.598 -2.102,4.699 -4.699,4.699 -2.597,0 -4.7,-2.102 -4.7,-4.699 v -24.491 z"
           clip-path="url(#SVGID_10_)"
           inkscape:connector-curvature="0"
           style="fill:#f68933"
           transform="matrix(0.87645683,0,0,0.87645683,133.93254,-115.84466)" />
        <path
           id="path3845"
           d="m 481.528,392.938 v -0.123 c 0,-7.234 5.504,-10.574 13.357,-10.574 3.34,0 5.751,0.557 8.103,1.36 v -0.557 c 0,-3.896 -2.413,-6.062 -7.112,-6.062 -2.599,0 -4.7,0.371 -6.494,0.928 -0.556,0.186 -0.928,0.247 -1.36,0.247 -2.164,0 -3.896,-1.67 -3.896,-3.833 0,-1.67 1.052,-3.093 2.535,-3.649 2.969,-1.113 6.185,-1.731 10.574,-1.731 5.135,0 8.845,1.36 11.194,3.711 2.475,2.475 3.588,6.121 3.588,10.574 v 15.09 c 0,2.535 -2.042,4.514 -4.576,4.514 -2.722,0 -4.516,-1.916 -4.516,-3.895 v -0.063 c -2.289,2.535 -5.442,4.205 -10.019,4.205 -6.245,0.001 -11.378,-3.585 -11.378,-10.142 m 21.583,-2.163 v -1.67 c -1.607,-0.743 -3.711,-1.236 -5.999,-1.236 -4.021,0 -6.493,1.606 -6.493,4.576 v 0.123 c 0,2.535 2.102,4.02 5.133,4.02 4.392,0 7.359,-2.411 7.359,-5.813"
           clip-path="url(#SVGID_10_)"
           inkscape:connector-curvature="0"
           style="fill:#f68933"
           transform="matrix(0.87645683,0,0,0.87645683,133.93254,-115.84466)" />
        <path
           id="path3847"
           d="m 521.792,361.647 c 0,-2.598 2.103,-4.701 4.7,-4.701 2.597,0 4.7,2.104 4.7,4.701 v 36.486 c 0,2.598 -2.104,4.7 -4.7,4.7 -2.598,0 -4.7,-2.103 -4.7,-4.7 z"
           clip-path="url(#SVGID_10_)"
           inkscape:connector-curvature="0"
           style="fill:#f68933"
           transform="matrix(0.87645683,0,0,0.87645683,133.93254,-115.84466)" />
        <path
           id="path3849"
           d="m 541.706,361.647 c 0,-2.598 2.104,-4.701 4.7,-4.701 2.598,0 4.7,2.104 4.7,4.701 v 36.486 c 0,2.598 -2.103,4.7 -4.7,4.7 -2.596,0 -4.7,-2.103 -4.7,-4.7 z"
           clip-path="url(#SVGID_10_)"
           inkscape:connector-curvature="0"
           style="fill:#f68933"
           transform="matrix(0.87645683,0,0,0.87645683,133.93254,-115.84466)" />
        <path
           id="path3851"
           d="m 559.579,386.074 v -0.123 c 0,-9.524 7.669,-17.254 17.997,-17.254 10.266,0 17.872,7.605 17.872,17.13 v 0.124 c 0,9.523 -7.668,17.254 -17.996,17.254 -10.265,0 -17.873,-7.606 -17.873,-17.131 m 26.593,0 v -0.123 c 0,-4.885 -3.524,-9.153 -8.72,-9.153 -5.381,0 -8.596,4.144 -8.596,9.029 v 0.124 c 0,4.886 3.524,9.152 8.72,9.152 5.38,10e-4 8.596,-4.142 8.596,-9.029"
           clip-path="url(#SVGID_10_)"
           inkscape:connector-curvature="0"
           style="fill:#f68933"
           transform="matrix(0.87645683,0,0,0.87645683,133.93254,-115.84466)" />
        <path
           id="path3853"
           d="M 608.812,398.876 600.709,375.5 c -0.186,-0.557 -0.433,-1.484 -0.433,-2.288 0,-2.165 1.731,-4.268 4.514,-4.268 2.352,0 3.897,1.484 4.578,3.649 l 5.069,16.82 5.196,-16.759 c 0.68,-2.227 2.411,-3.773 4.823,-3.773 h 0.557 c 2.411,0 4.145,1.547 4.824,3.773 l 5.256,16.82 5.195,-16.945 c 0.618,-1.979 2.04,-3.586 4.515,-3.586 2.597,0 4.39,1.979 4.39,4.329 0,0.618 -0.185,1.483 -0.309,1.917 l -8.349,23.686 c -0.989,2.907 -2.907,4.205 -5.195,4.205 h -0.309 c -2.288,0 -4.206,-1.298 -5.071,-4.019 l -5.256,-16.698 -5.319,16.698 c -0.865,2.721 -2.783,4.019 -5.071,4.019 h -0.309 c -2.287,0.001 -4.204,-1.297 -5.193,-4.204"
           clip-path="url(#SVGID_10_)"
           inkscape:connector-curvature="0"
           style="fill:#f68933"
           transform="matrix(0.87645683,0,0,0.87645683,133.93254,-115.84466)" />
        <path
           id="path3855"
           d="m 655.261,399.309 c -0.99,-0.618 -1.795,-1.73 -1.795,-3.216 0,-2.103 1.607,-3.711 3.712,-3.711 0.68,0 1.359,0.187 1.854,0.495 3.155,1.979 6.309,2.97 8.969,2.97 2.721,0 3.958,-0.99 3.958,-2.475 v -0.124 c 0,-2.041 -3.217,-2.721 -6.864,-3.834 -4.639,-1.36 -9.896,-3.524 -9.896,-9.956 v -0.125 c 0,-6.739 5.442,-10.513 12.121,-10.513 3.463,0 7.05,0.929 10.267,2.535 1.36,0.682 2.227,1.918 2.227,3.526 0,2.102 -1.67,3.71 -3.773,3.71 -0.68,0 -1.113,-0.124 -1.731,-0.434 -2.659,-1.298 -5.194,-2.102 -7.173,-2.102 -2.288,0 -3.463,0.988 -3.463,2.288 v 0.123 c 0,1.855 3.152,2.722 6.738,3.958 4.64,1.547 10.021,3.773 10.021,9.833 v 0.123 c 0,7.359 -5.505,10.699 -12.678,10.699 -4.083,0.002 -8.475,-1.173 -12.494,-3.77"
           clip-path="url(#SVGID_10_)"
           inkscape:connector-curvature="0"
           style="fill:#f68933"
           transform="matrix(0.87645683,0,0,0.87645683,133.93254,-115.84466)" />
        <polygon
           id="polygon3857"
           points="686.055,368.946 686.055,364.816 684.479,364.816 684.479,363.765 688.771,363.765 688.771,364.816 687.194,364.816 687.194,368.946 "
           clip-path="url(#SVGID_10_)"
           style="fill:#ffcf35"
           transform="matrix(0.87645683,0,0,0.87645683,133.93254,-115.84466)" />
        <polygon
           id="polygon3859"
           points="693.696,365.563 692.237,367.776 692.208,367.776 690.766,365.586 690.766,368.946 689.646,368.946 689.646,363.765 690.877,363.765 692.237,365.955 693.6,363.765 694.828,363.765 694.828,368.946 693.696,368.946 "
           clip-path="url(#SVGID_10_)"
           style="fill:#f68933"
           transform="matrix(0.87645683,0,0,0.87645683,133.93254,-115.84466)" />
        <g
           id="g4441"
           transform="matrix(0.93683223,0,0,0.9429242,-283.89974,335.02105)">
          <defs
             id="defs4316">
            <rect
               height="500"
               width="1500"
               id="rect4451"
               x="0"
               y="0" />
          </defs>
          <clipPath
             id="SVGID_2_-0">
            <use
               id="use4318"
               overflow="visible"
               xlink:href="#SVGID_1_-9"
               style="overflow:visible"
               x="0"
               y="0"
               width="100%"
               height="100%" />
          </clipPath>
          <path
             id="path4371"
             d="m 451.168,295.59 c 0,-0.67 0.549,-1.219 1.189,-1.219 h 6.799 c 4.817,0 7.987,2.561 7.987,6.768 v 0.062 c 0,4.604 -3.841,6.981 -8.384,6.981 h -5.182 v 6.463 c 0,0.671 -0.549,1.22 -1.22,1.22 -0.64,0 -1.189,-0.549 -1.189,-1.22 z m 7.684,10.396 c 3.536,0 5.854,-1.89 5.854,-4.694 v -0.062 c 0,-3.049 -2.288,-4.634 -5.732,-4.634 h -5.396 v 9.39 z"
             clip-path="url(#SVGID_2_-0)"
             inkscape:connector-curvature="0"
             style="fill:#f68933"
             transform="matrix(0.8497244,0,0,0.8497244,275.6579,-335.28355)" />
          <path
             id="path4373"
             d="m 478.487,316.078 c -4.329,0 -7.865,-3.323 -7.865,-8.201 v -0.062 c 0,-4.542 3.201,-8.2 7.56,-8.2 4.665,0 7.318,3.811 7.318,7.987 0,0.64 -0.519,1.098 -1.098,1.098 H 473 c 0.335,3.414 2.744,5.335 5.548,5.335 1.952,0 3.384,-0.762 4.542,-1.829 0.184,-0.152 0.397,-0.274 0.671,-0.274 0.579,0 1.037,0.457 1.037,1.006 0,0.274 -0.122,0.549 -0.366,0.763 -1.494,1.432 -3.262,2.377 -5.945,2.377 m 4.665,-9.116 c -0.244,-2.865 -1.891,-5.365 -5.03,-5.365 -2.744,0 -4.818,2.286 -5.122,5.365 z"
             clip-path="url(#SVGID_2_-0)"
             inkscape:connector-curvature="0"
             style="fill:#f68933"
             transform="matrix(0.8497244,0,0,0.8497244,275.6579,-335.28355)" />
          <path
             id="path4375"
             d="m 497.147,316.078 c -4.329,0 -7.865,-3.323 -7.865,-8.201 v -0.062 c 0,-4.542 3.201,-8.2 7.56,-8.2 4.665,0 7.318,3.811 7.318,7.987 0,0.64 -0.519,1.098 -1.098,1.098 H 491.66 c 0.335,3.414 2.744,5.335 5.548,5.335 1.952,0 3.384,-0.762 4.542,-1.829 0.184,-0.152 0.397,-0.274 0.671,-0.274 0.579,0 1.037,0.457 1.037,1.006 0,0.274 -0.122,0.549 -0.366,0.763 -1.493,1.432 -3.261,2.377 -5.945,2.377 m 4.666,-9.116 c -0.244,-2.865 -1.891,-5.365 -5.03,-5.365 -2.744,0 -4.818,2.286 -5.122,5.365 z"
             clip-path="url(#SVGID_2_-0)"
             inkscape:connector-curvature="0"
             style="fill:#f68933"
             transform="matrix(0.8497244,0,0,0.8497244,275.6579,-335.28355)" />
          <path
             id="path4377"
             d="m 508.917,300.986 c 0,-0.64 0.519,-1.188 1.158,-1.188 0.671,0 1.19,0.519 1.19,1.188 v 2.958 c 1.158,-2.622 3.444,-4.208 5.426,-4.208 0.702,0 1.159,0.519 1.159,1.189 0,0.641 -0.427,1.098 -1.037,1.188 -3.048,0.366 -5.548,2.652 -5.548,7.195 v 5.366 c 0,0.64 -0.489,1.188 -1.16,1.188 -0.669,0 -1.188,-0.519 -1.188,-1.188 z"
             clip-path="url(#SVGID_2_-0)"
             inkscape:connector-curvature="0"
             style="fill:#f68933"
             transform="matrix(0.8497244,0,0,0.8497244,275.6579,-335.28355)" />
          <path
             id="path4379"
             d="m 521.083,306.535 c 0,-0.64 0.549,-1.22 1.22,-1.22 h 6.341 c 0.67,0 1.219,0.58 1.219,1.22 0,0.671 -0.549,1.25 -1.219,1.25 h -6.341 c -0.671,0 -1.22,-0.579 -1.22,-1.25"
             clip-path="url(#SVGID_2_-0)"
             inkscape:connector-curvature="0"
             style="fill:#f68933"
             transform="matrix(0.8497244,0,0,0.8497244,275.6579,-335.28355)" />
          <path
             id="path4381"
             d="m 535.748,311.535 v -9.512 h -1.28 c -0.549,0 -1.037,-0.488 -1.037,-1.037 0,-0.579 0.488,-1.036 1.037,-1.036 h 1.28 v -3.72 c 0,-0.64 0.487,-1.188 1.158,-1.188 0.641,0 1.19,0.549 1.19,1.188 v 3.72 h 4.085 c 0.579,0 1.067,0.487 1.067,1.036 0,0.58 -0.488,1.037 -1.067,1.037 h -4.085 v 9.207 c 0,1.921 1.066,2.622 2.652,2.622 0.822,0 1.25,-0.213 1.433,-0.213 0.548,0 1.005,0.457 1.005,1.005 0,0.427 -0.274,0.763 -0.67,0.915 -0.671,0.274 -1.403,0.427 -2.317,0.427 -2.531,0 -4.451,-1.25 -4.451,-4.451"
             clip-path="url(#SVGID_2_-0)"
             inkscape:connector-curvature="0"
             style="fill:#f68933"
             transform="matrix(0.8497244,0,0,0.8497244,275.6579,-335.28355)" />
          <path
             id="path4383"
             d="m 546.421,307.907 v -0.061 c 0,-4.451 3.475,-8.231 8.231,-8.231 4.726,0 8.201,3.719 8.201,8.17 v 0.062 c 0,4.45 -3.506,8.231 -8.263,8.231 -4.724,0 -8.169,-3.72 -8.169,-8.171 m 14.023,0 v -0.061 c 0,-3.385 -2.53,-6.159 -5.854,-6.159 -3.414,0 -5.761,2.774 -5.761,6.098 v 0.062 c 0,3.384 2.5,6.128 5.823,6.128 3.414,0 5.792,-2.745 5.792,-6.068"
             clip-path="url(#SVGID_2_-0)"
             inkscape:connector-curvature="0"
             style="fill:#f68933"
             transform="matrix(0.8497244,0,0,0.8497244,275.6579,-335.28355)" />
          <path
             id="path4385"
             d="m 566.91,306.535 c 0,-0.64 0.549,-1.22 1.22,-1.22 h 6.341 c 0.67,0 1.219,0.58 1.219,1.22 0,0.671 -0.549,1.25 -1.219,1.25 h -6.341 c -0.671,0 -1.22,-0.579 -1.22,-1.25"
             clip-path="url(#SVGID_2_-0)"
             inkscape:connector-curvature="0"
             style="fill:#f68933"
             transform="matrix(0.8497244,0,0,0.8497244,275.6579,-335.28355)" />
          <path
             id="path4387"
             d="m 581.149,295.59 c 0,-0.67 0.549,-1.219 1.189,-1.219 h 6.799 c 4.817,0 7.987,2.561 7.987,6.768 v 0.062 c 0,4.604 -3.841,6.981 -8.384,6.981 h -5.182 v 6.463 c 0,0.671 -0.549,1.22 -1.22,1.22 -0.64,0 -1.189,-0.549 -1.189,-1.22 z m 7.683,10.396 c 3.536,0 5.854,-1.89 5.854,-4.694 v -0.062 c 0,-3.049 -2.288,-4.634 -5.732,-4.634 h -5.396 v 9.39 z"
             clip-path="url(#SVGID_2_-0)"
             inkscape:connector-curvature="0"
             style="fill:#f68933"
             transform="matrix(0.8497244,0,0,0.8497244,275.6579,-335.28355)" />
          <path
             id="path4389"
             d="m 608.468,316.078 c -4.329,0 -7.865,-3.323 -7.865,-8.201 v -0.062 c 0,-4.542 3.201,-8.2 7.56,-8.2 4.665,0 7.318,3.811 7.318,7.987 0,0.64 -0.519,1.098 -1.098,1.098 h -11.402 c 0.335,3.414 2.744,5.335 5.548,5.335 1.952,0 3.384,-0.762 4.542,-1.829 0.184,-0.152 0.397,-0.274 0.671,-0.274 0.579,0 1.037,0.457 1.037,1.006 0,0.274 -0.122,0.549 -0.366,0.763 -1.494,1.432 -3.262,2.377 -5.945,2.377 m 4.665,-9.116 c -0.244,-2.865 -1.891,-5.365 -5.03,-5.365 -2.744,0 -4.818,2.286 -5.122,5.365 z"
             clip-path="url(#SVGID_2_-0)"
             inkscape:connector-curvature="0"
             style="fill:#f68933"
             transform="matrix(0.8497244,0,0,0.8497244,275.6579,-335.28355)" />
          <path
             id="path4391"
             d="m 627.127,316.078 c -4.329,0 -7.865,-3.323 -7.865,-8.201 v -0.062 c 0,-4.542 3.201,-8.2 7.56,-8.2 4.665,0 7.318,3.811 7.318,7.987 0,0.64 -0.519,1.098 -1.098,1.098 H 621.64 c 0.335,3.414 2.744,5.335 5.548,5.335 1.952,0 3.384,-0.762 4.542,-1.829 0.184,-0.152 0.397,-0.274 0.671,-0.274 0.579,0 1.037,0.457 1.037,1.006 0,0.274 -0.122,0.549 -0.366,0.763 -1.494,1.432 -3.261,2.377 -5.945,2.377 m 4.665,-9.116 c -0.244,-2.865 -1.891,-5.365 -5.03,-5.365 -2.744,0 -4.818,2.286 -5.122,5.365 z"
             clip-path="url(#SVGID_2_-0)"
             inkscape:connector-curvature="0"
             style="fill:#f68933"
             transform="matrix(0.8497244,0,0,0.8497244,275.6579,-335.28355)" />
          <path
             id="path4393"
             d="m 638.897,300.986 c 0,-0.64 0.519,-1.188 1.158,-1.188 0.671,0 1.19,0.519 1.19,1.188 v 2.958 c 1.158,-2.622 3.444,-4.208 5.426,-4.208 0.702,0 1.159,0.519 1.159,1.189 0,0.641 -0.427,1.098 -1.037,1.188 -3.048,0.366 -5.548,2.652 -5.548,7.195 v 5.366 c 0,0.64 -0.489,1.188 -1.16,1.188 -0.669,0 -1.188,-0.519 -1.188,-1.188 z"
             clip-path="url(#SVGID_2_-0)"
             inkscape:connector-curvature="0"
             style="fill:#f68933"
             transform="matrix(0.8497244,0,0,0.8497244,275.6579,-335.28355)" />
          <path
             id="path4395"
             d="m 662.009,295.438 c 0,-0.671 0.549,-1.22 1.188,-1.22 0.671,0 1.22,0.549 1.22,1.22 v 18.048 h 11.067 c 0.61,0 1.097,0.519 1.097,1.128 0,0.61 -0.487,1.098 -1.097,1.098 h -12.287 c -0.639,0 -1.188,-0.549 -1.188,-1.22 z"
             clip-path="url(#SVGID_2_-0)"
             inkscape:connector-curvature="0"
             style="fill:#f68933"
             transform="matrix(0.8497244,0,0,0.8497244,275.6579,-335.28355)" />
          <path
             id="path4397"
             d="m 679.905,311.139 v -0.061 c 0,-3.323 2.744,-5.092 6.738,-5.092 2.012,0 3.444,0.274 4.847,0.671 v -0.55 c 0,-2.835 -1.738,-4.298 -4.695,-4.298 -1.586,0 -2.926,0.366 -4.086,0.885 -0.152,0.061 -0.304,0.091 -0.426,0.091 -0.549,0 -1.036,-0.457 -1.036,-1.006 0,-0.487 0.335,-0.854 0.639,-0.976 1.556,-0.671 3.141,-1.067 5.153,-1.067 2.225,0 3.933,0.579 5.091,1.738 1.068,1.066 1.617,2.59 1.617,4.604 v 8.628 c 0,0.671 -0.489,1.158 -1.128,1.158 -0.671,0 -1.129,-0.487 -1.129,-1.098 v -1.433 c -1.097,1.433 -2.927,2.713 -5.701,2.713 -2.926,0.001 -5.884,-1.676 -5.884,-4.907 m 11.616,-1.22 v -1.524 c -1.159,-0.335 -2.714,-0.67 -4.635,-0.67 -2.957,0 -4.604,1.28 -4.604,3.262 v 0.062 c 0,1.981 1.829,3.14 3.964,3.14 2.898,-0.001 5.275,-1.77 5.275,-4.27"
             clip-path="url(#SVGID_2_-0)"
             inkscape:connector-curvature="0"
             style="fill:#f68933"
             transform="matrix(0.8497244,0,0,0.8497244,275.6579,-335.28355)" />
          <path
             id="path4399"
             d="m 699.359,300.986 c 0,-0.64 0.519,-1.188 1.158,-1.188 0.671,0 1.19,0.519 1.19,1.188 v 1.708 c 1.036,-1.708 2.682,-3.079 5.395,-3.079 3.812,0 6.037,2.561 6.037,6.311 v 8.75 c 0,0.67 -0.518,1.188 -1.159,1.188 -0.67,0 -1.188,-0.519 -1.188,-1.188 v -8.171 c 0,-2.927 -1.586,-4.756 -4.36,-4.756 -2.714,0 -4.725,1.981 -4.725,4.938 v 7.988 c 0,0.67 -0.489,1.188 -1.16,1.188 -0.669,0 -1.188,-0.519 -1.188,-1.188 z"
             clip-path="url(#SVGID_2_-0)"
             inkscape:connector-curvature="0"
             style="fill:#f68933"
             transform="matrix(0.8497244,0,0,0.8497244,275.6579,-335.28355)" />
          <path
             id="path4401"
             d="m 719.147,318.791 c -0.366,-0.183 -0.61,-0.549 -0.61,-0.976 0,-0.519 0.519,-1.036 1.067,-1.036 0.213,0 0.367,0.061 0.519,0.152 1.645,1.098 3.536,1.707 5.579,1.707 3.476,0 5.731,-1.921 5.731,-5.609 v -1.86 c -1.372,1.83 -3.293,3.323 -6.189,3.323 -3.78,0 -7.408,-2.835 -7.408,-7.378 v -0.061 c 0,-4.604 3.658,-7.438 7.408,-7.438 2.958,0 4.878,1.463 6.159,3.17 v -1.799 c 0,-0.64 0.487,-1.188 1.158,-1.188 0.671,0 1.189,0.549 1.189,1.188 v 11.981 c 0,2.439 -0.732,4.299 -2.012,5.579 -1.402,1.402 -3.506,2.104 -6.006,2.104 -2.408,0 -4.603,-0.639 -6.585,-1.859 m 12.347,-11.707 v -0.061 c 0,-3.232 -2.805,-5.335 -5.792,-5.335 -2.988,0 -5.457,2.072 -5.457,5.304 v 0.062 c 0,3.171 2.53,5.365 5.457,5.365 2.987,0 5.792,-2.164 5.792,-5.335"
             clip-path="url(#SVGID_2_-0)"
             inkscape:connector-curvature="0"
             style="fill:#f68933"
             transform="matrix(0.8497244,0,0,0.8497244,275.6579,-335.28355)" />
          <path
             id="path4403"
             d="m 753.112,314.676 c 0,0.64 -0.488,1.188 -1.159,1.188 -0.64,0 -1.158,-0.519 -1.158,-1.188 v -1.708 c -1.067,1.708 -2.683,3.079 -5.396,3.079 -3.81,0 -6.036,-2.561 -6.036,-6.311 v -8.75 c 0,-0.67 0.488,-1.188 1.158,-1.188 0.641,0 1.19,0.519 1.19,1.188 v 8.171 c 0,2.927 1.585,4.756 4.359,4.756 2.683,0 4.726,-1.981 4.726,-4.938 v -7.988 c 0,-0.67 0.488,-1.188 1.158,-1.188 0.641,0 1.159,0.519 1.159,1.188 v 13.689 z"
             clip-path="url(#SVGID_2_-0)"
             inkscape:connector-curvature="0"
             style="fill:#f68933"
             transform="matrix(0.8497244,0,0,0.8497244,275.6579,-335.28355)" />
          <path
             id="path4405"
             d="m 757.809,311.139 v -0.061 c 0,-3.323 2.744,-5.092 6.738,-5.092 2.012,0 3.444,0.274 4.847,0.671 v -0.55 c 0,-2.835 -1.737,-4.298 -4.694,-4.298 -1.586,0 -2.927,0.366 -4.086,0.885 -0.152,0.061 -0.305,0.091 -0.427,0.091 -0.549,0 -1.036,-0.457 -1.036,-1.006 0,-0.487 0.335,-0.854 0.641,-0.976 1.555,-0.671 3.14,-1.067 5.151,-1.067 2.226,0 3.934,0.579 5.092,1.738 1.067,1.066 1.616,2.59 1.616,4.604 v 8.628 c 0,0.671 -0.488,1.158 -1.129,1.158 -0.67,0 -1.128,-0.487 -1.128,-1.098 v -1.433 c -1.097,1.433 -2.927,2.713 -5.7,2.713 -2.928,0.001 -5.885,-1.676 -5.885,-4.907 m 11.616,-1.22 v -1.524 c -1.159,-0.335 -2.714,-0.67 -4.635,-0.67 -2.957,0 -4.604,1.28 -4.604,3.262 v 0.062 c 0,1.981 1.829,3.14 3.964,3.14 2.897,-0.001 5.275,-1.77 5.275,-4.27"
             clip-path="url(#SVGID_2_-0)"
             inkscape:connector-curvature="0"
             style="fill:#f68933"
             transform="matrix(0.8497244,0,0,0.8497244,275.6579,-335.28355)" />
          <path
             id="path4407"
             d="m 777.658,318.791 c -0.366,-0.183 -0.61,-0.549 -0.61,-0.976 0,-0.519 0.519,-1.036 1.067,-1.036 0.213,0 0.366,0.061 0.519,0.152 1.646,1.098 3.536,1.707 5.579,1.707 3.476,0 5.73,-1.921 5.73,-5.609 v -1.86 c -1.371,1.83 -3.293,3.323 -6.188,3.323 -3.78,0 -7.408,-2.835 -7.408,-7.378 v -0.061 c 0,-4.604 3.659,-7.438 7.408,-7.438 2.958,0 4.878,1.463 6.159,3.17 v -1.799 c 0,-0.64 0.486,-1.188 1.158,-1.188 0.671,0 1.188,0.549 1.188,1.188 v 11.981 c 0,2.439 -0.731,4.299 -2.012,5.579 -1.402,1.402 -3.506,2.104 -6.006,2.104 -2.407,0 -4.602,-0.639 -6.584,-1.859 m 12.347,-11.707 v -0.061 c 0,-3.232 -2.805,-5.335 -5.792,-5.335 -2.988,0 -5.457,2.072 -5.457,5.304 v 0.062 c 0,3.171 2.53,5.365 5.457,5.365 2.987,0 5.792,-2.164 5.792,-5.335"
             clip-path="url(#SVGID_2_-0)"
             inkscape:connector-curvature="0"
             style="fill:#f68933"
             transform="matrix(0.8497244,0,0,0.8497244,275.6579,-335.28355)" />
          <path
             id="path4409"
             d="m 805.007,316.078 c -4.329,0 -7.865,-3.323 -7.865,-8.201 v -0.062 c 0,-4.542 3.201,-8.2 7.561,-8.2 4.665,0 7.317,3.811 7.317,7.987 0,0.64 -0.519,1.098 -1.098,1.098 H 799.52 c 0.335,3.414 2.744,5.335 5.549,5.335 1.951,0 3.384,-0.762 4.541,-1.829 0.185,-0.152 0.397,-0.274 0.672,-0.274 0.578,0 1.037,0.457 1.037,1.006 0,0.274 -0.122,0.549 -0.366,0.763 -1.495,1.432 -3.264,2.377 -5.946,2.377 m 4.665,-9.116 c -0.244,-2.865 -1.891,-5.365 -5.03,-5.365 -2.744,0 -4.817,2.286 -5.122,5.365 z"
             clip-path="url(#SVGID_2_-0)"
             inkscape:connector-curvature="0"
             style="fill:#f68933"
             transform="matrix(0.8497244,0,0,0.8497244,275.6579,-335.28355)" />
          <path
             id="path4411"
             d="m 826.93,295.59 c 0,-0.67 0.549,-1.219 1.188,-1.219 h 6.799 c 4.817,0 7.987,2.561 7.987,6.768 v 0.062 c 0,4.604 -3.841,6.981 -8.384,6.981 h -5.183 v 6.463 c 0,0.671 -0.549,1.22 -1.22,1.22 -0.64,0 -1.188,-0.549 -1.188,-1.22 V 295.59 Z m 7.682,10.396 c 3.536,0 5.854,-1.89 5.854,-4.694 v -0.062 c 0,-3.049 -2.287,-4.634 -5.731,-4.634 h -5.396 v 9.39 z"
             clip-path="url(#SVGID_2_-0)"
             inkscape:connector-curvature="0"
             style="fill:#f68933"
             transform="matrix(0.8497244,0,0,0.8497244,275.6579,-335.28355)" />
          <path
             id="path4413"
             d="m 847.511,300.986 c 0,-0.64 0.519,-1.188 1.158,-1.188 0.671,0 1.189,0.519 1.189,1.188 v 2.958 c 1.158,-2.622 3.444,-4.208 5.427,-4.208 0.701,0 1.158,0.519 1.158,1.189 0,0.641 -0.427,1.098 -1.037,1.188 -3.048,0.366 -5.548,2.652 -5.548,7.195 v 5.366 c 0,0.64 -0.489,1.188 -1.16,1.188 -0.669,0 -1.188,-0.519 -1.188,-1.188 v -13.688 z"
             clip-path="url(#SVGID_2_-0)"
             inkscape:connector-curvature="0"
             style="fill:#f68933"
             transform="matrix(0.8497244,0,0,0.8497244,275.6579,-335.28355)" />
          <path
             id="path4415"
             d="m 858.519,311.139 v -0.061 c 0,-3.323 2.744,-5.092 6.738,-5.092 2.012,0 3.444,0.274 4.847,0.671 v -0.55 c 0,-2.835 -1.737,-4.298 -4.694,-4.298 -1.586,0 -2.927,0.366 -4.086,0.885 -0.152,0.061 -0.305,0.091 -0.427,0.091 -0.549,0 -1.036,-0.457 -1.036,-1.006 0,-0.487 0.335,-0.854 0.64,-0.976 1.556,-0.671 3.141,-1.067 5.152,-1.067 2.226,0 3.934,0.579 5.092,1.738 1.067,1.066 1.616,2.59 1.616,4.604 v 8.628 c 0,0.671 -0.488,1.158 -1.128,1.158 -0.671,0 -1.129,-0.487 -1.129,-1.098 v -1.433 c -1.097,1.433 -2.927,2.713 -5.701,2.713 -2.926,0.001 -5.884,-1.676 -5.884,-4.907 m 11.616,-1.22 v -1.524 c -1.159,-0.335 -2.714,-0.67 -4.635,-0.67 -2.957,0 -4.604,1.28 -4.604,3.262 v 0.062 c 0,1.981 1.829,3.14 3.964,3.14 2.897,-0.001 5.275,-1.77 5.275,-4.27"
             clip-path="url(#SVGID_2_-0)"
             inkscape:connector-curvature="0"
             style="fill:#f68933"
             transform="matrix(0.8497244,0,0,0.8497244,275.6579,-335.28355)" />
          <path
             id="path4417"
             d="m 876.996,307.907 v -0.061 c 0,-4.451 3.476,-8.231 8.079,-8.231 2.622,0 4.39,1.006 5.792,2.286 0.184,0.151 0.366,0.457 0.366,0.823 0,0.64 -0.519,1.128 -1.128,1.128 -0.305,0 -0.579,-0.122 -0.763,-0.274 -1.128,-1.037 -2.409,-1.891 -4.298,-1.891 -3.201,0 -5.641,2.714 -5.641,6.098 v 0.062 c 0,3.414 2.5,6.128 5.793,6.128 1.799,0 3.231,-0.823 4.39,-1.922 0.152,-0.151 0.366,-0.304 0.671,-0.304 0.579,0 1.067,0.518 1.067,1.066 0,0.274 -0.122,0.549 -0.306,0.731 -1.493,1.494 -3.293,2.531 -5.944,2.531 -4.602,10e-4 -8.078,-3.749 -8.078,-8.17"
             clip-path="url(#SVGID_2_-0)"
             inkscape:connector-curvature="0"
             style="fill:#f68933"
             transform="matrix(0.8497244,0,0,0.8497244,275.6579,-335.28355)" />
          <path
             id="path4419"
             d="m 896.815,311.535 v -9.512 h -1.28 c -0.549,0 -1.037,-0.488 -1.037,-1.037 0,-0.579 0.488,-1.036 1.037,-1.036 h 1.28 v -3.72 c 0,-0.64 0.487,-1.188 1.158,-1.188 0.641,0 1.189,0.549 1.189,1.188 v 3.72 h 4.085 c 0.579,0 1.067,0.487 1.067,1.036 0,0.58 -0.488,1.037 -1.067,1.037 h -4.085 v 9.207 c 0,1.921 1.066,2.622 2.652,2.622 0.823,0 1.25,-0.213 1.433,-0.213 0.549,0 1.006,0.457 1.006,1.005 0,0.427 -0.274,0.763 -0.671,0.915 -0.671,0.274 -1.402,0.427 -2.316,0.427 -2.53,0 -4.451,-1.25 -4.451,-4.451"
             clip-path="url(#SVGID_2_-0)"
             inkscape:connector-curvature="0"
             style="fill:#f68933"
             transform="matrix(0.8497244,0,0,0.8497244,275.6579,-335.28355)" />
          <path
             id="path4421"
             d="m 908.92,295.011 c 0,-0.762 0.609,-1.249 1.372,-1.249 0.792,0 1.402,0.487 1.402,1.249 v 0.396 c 0,0.732 -0.61,1.25 -1.402,1.25 -0.763,0 -1.372,-0.518 -1.372,-1.25 z m 0.213,5.975 c 0,-0.64 0.519,-1.188 1.159,-1.188 0.67,0 1.188,0.519 1.188,1.188 v 13.689 c 0,0.67 -0.487,1.188 -1.158,1.188 -0.671,0 -1.189,-0.519 -1.189,-1.188 z"
             clip-path="url(#SVGID_2_-0)"
             inkscape:connector-curvature="0"
             style="fill:#f68933"
             transform="matrix(0.8497244,0,0,0.8497244,275.6579,-335.28355)" />
          <path
             id="path4423"
             d="m 916.572,307.907 v -0.061 c 0,-4.451 3.476,-8.231 8.079,-8.231 2.622,0 4.39,1.006 5.792,2.286 0.184,0.151 0.366,0.457 0.366,0.823 0,0.64 -0.519,1.128 -1.128,1.128 -0.305,0 -0.579,-0.122 -0.763,-0.274 -1.128,-1.037 -2.408,-1.891 -4.298,-1.891 -3.201,0 -5.641,2.714 -5.641,6.098 v 0.062 c 0,3.414 2.5,6.128 5.793,6.128 1.799,0 3.231,-0.823 4.39,-1.922 0.152,-0.151 0.366,-0.304 0.671,-0.304 0.579,0 1.067,0.518 1.067,1.066 0,0.274 -0.122,0.549 -0.306,0.731 -1.493,1.494 -3.292,2.531 -5.944,2.531 -4.602,10e-4 -8.078,-3.749 -8.078,-8.17"
             clip-path="url(#SVGID_2_-0)"
             inkscape:connector-curvature="0"
             style="fill:#f68933"
             transform="matrix(0.8497244,0,0,0.8497244,275.6579,-335.28355)" />
          <path
             id="path4425"
             d="m 942,316.078 c -4.329,0 -7.865,-3.323 -7.865,-8.201 v -0.062 c 0,-4.542 3.201,-8.2 7.561,-8.2 4.665,0 7.317,3.811 7.317,7.987 0,0.64 -0.519,1.098 -1.098,1.098 h -11.402 c 0.335,3.414 2.744,5.335 5.548,5.335 1.952,0 3.385,-0.762 4.542,-1.829 0.185,-0.152 0.397,-0.274 0.671,-0.274 0.579,0 1.037,0.457 1.037,1.006 0,0.274 -0.121,0.549 -0.365,0.763 -1.495,1.432 -3.262,2.377 -5.946,2.377 m 4.665,-9.116 c -0.244,-2.865 -1.892,-5.365 -5.03,-5.365 -2.744,0 -4.817,2.286 -5.122,5.365 z"
             clip-path="url(#SVGID_2_-0)"
             inkscape:connector-curvature="0"
             style="fill:#f68933"
             transform="matrix(0.8497244,0,0,0.8497244,275.6579,-335.28355)" />
        </g>
      </g>
    </g>
  </g>
</svg>
